<svg width="69" height="43" viewBox="0 0 69 43" fill="none" xmlns="http://www.w3.org/2000/svg">
<path d="M1 12.6525L35.5261 1L68.3258 12.6525L35.5261 23.8735L1 12.6525Z" stroke="white" stroke-width="2" stroke-linejoin="bevel"/>
<path d="M14.8145 19.9897V34.6633C16.9723 37.6844 24.3954 42.0001 35.0985 42.0001" stroke="white" stroke-width="2"/>
<path d="M54.9443 19.9897V34.9301C52.7865 38.0061 45.7949 42.0001 35.0918 42.0001" stroke="white" stroke-width="2"/>
<path d="M35.9281 11.3063C35.4228 11.0833 34.8324 11.3123 34.6095 11.8176C34.3866 12.3228 34.6155 12.9132 35.1208 13.1361L35.9281 11.3063ZM50.198 18.6948H51.198V18.043L50.6016 17.7799L50.198 18.6948ZM35.1208 13.1361L49.7944 19.6097L50.6016 17.7799L35.9281 11.3063L35.1208 13.1361ZM49.198 18.6948V29.4842H51.198V18.6948H49.198Z" fill="white"/>
</svg>
