<svg width="100" height="100" viewBox="0 0 100 100" fill="none" xmlns="http://www.w3.org/2000/svg">
<g clip-path="url(#clip0)">
<path d="M77.2676 16.2681L77.9747 15.561L77.2676 14.8539L76.5605 15.561L77.2676 16.2681ZM85.4483 24.4488L86.1554 25.1559L86.8625 24.4488L86.1554 23.7417L85.4483 24.4488ZM30.9103 78.9868L31.3042 79.9059L31.4812 79.8301L31.6174 79.6939L30.9103 78.9868ZM22.7296 70.8061L22.0225 70.099L21.8863 70.2352L21.8104 70.4122L22.7296 70.8061ZM16.594 85.1223L15.6749 84.7284L16.988 86.0415L16.594 85.1223ZM72.4955 21.0401L71.7884 20.333L72.4955 21.0401ZM40.0088 53.5269L40.7159 52.8197L40.0088 52.1126L39.3017 52.8197L40.0088 53.5269ZM48.1895 61.7076L48.8966 62.4147L49.6037 61.7076L48.8966 61.0005L48.1895 61.7076ZM55.583 37.9527L54.8759 37.2456L54.1688 37.9527L54.8759 38.6598L55.583 37.9527ZM63.7637 46.1334L63.0566 46.8405L63.7637 47.5476L64.4708 46.8405L63.7637 46.1334ZM76.5605 16.9752L84.7412 25.1559L86.1554 23.7417L77.9747 15.561L76.5605 16.9752ZM31.6174 78.2797L23.4367 70.099L22.0225 71.5132L30.2032 79.6939L31.6174 78.2797ZM21.8104 70.4122L15.6749 84.7284L17.5132 85.5162L23.6487 71.2L21.8104 70.4122ZM16.988 86.0415L31.3042 79.9059L30.5163 78.0676L16.2001 84.2032L16.988 86.0415ZM73.2026 21.7472L77.9747 16.9752L76.5605 15.561L71.7884 20.333L73.2026 21.7472ZM84.7412 23.7417L79.9691 28.5137L81.3833 29.928L86.1554 25.1559L84.7412 23.7417ZM71.7884 21.7472L79.9691 29.928L81.3833 28.5137L73.2026 20.333L71.7884 21.7472ZM23.4367 71.5132L40.7159 54.234L39.3017 52.8197L22.0225 70.099L23.4367 71.5132ZM47.4824 61.0005L30.2032 78.2797L31.6174 79.6939L48.8966 62.4147L47.4824 61.0005ZM39.3017 54.234L47.4824 62.4147L48.8966 61.0005L40.7159 52.8197L39.3017 54.234ZM56.2901 38.6598L73.2026 21.7472L71.7884 20.333L54.8759 37.2456L56.2901 38.6598ZM79.9691 28.5137L63.0566 45.4263L64.4708 46.8405L81.3833 29.928L79.9691 28.5137ZM54.8759 38.6598L63.0566 46.8405L64.4708 45.4263L56.2901 37.2456L54.8759 38.6598Z" fill="#171E27"/>
<rect x="26.1426" y="14.272" width="82.8412" height="13.4257" transform="rotate(45 26.1426 14.272)" stroke="#171E27" stroke-width="2"/>
<path d="M30.2324 16.9478L26.8238 20.3564M34.3228 21.0381L29.5507 25.8102M38.4131 25.1285L35.0045 28.5371M42.5035 29.2188L37.7314 33.9909M46.5938 33.3092L43.1852 36.7178M50.6842 37.3995L45.9121 42.1716M54.0928 40.8081L50.6842 44.2168M58.1832 44.8985L53.4111 49.6706M62.2735 48.9888L58.8649 52.3975M66.3639 53.0792L61.5918 57.8513M70.4542 57.1695L67.0456 60.5782M74.5446 61.2599L69.7725 66.032M77.9532 64.6685L74.5446 68.0771M82.0435 68.7589L77.2715 73.5309" stroke="#171E27" stroke-width="2"/>
</g>
<defs>
<clipPath id="clip0">
<rect width="100" height="100" fill="white"/>
</clipPath>
</defs>
</svg>
