<svg width="40" height="42" viewBox="0 0 40 42" fill="none" xmlns="http://www.w3.org/2000/svg">
<path fill-rule="evenodd" clip-rule="evenodd" d="M10.125 41H29.875C30.9796 41 31.875 40.1046 31.875 39V34.125V25.375V16.625V7.875V3C31.875 1.89543 30.9796 1 29.875 1H10.125C9.02043 1 8.125 1.89543 8.125 3V7.875V16.625V25.375V34.125V39C8.125 40.1046 9.02043 41 10.125 41ZM15 11C16.6569 11 18 9.65685 18 8C18 6.34315 16.6569 5 15 5C13.3431 5 12 6.34315 12 8C12 9.65685 13.3431 11 15 11Z" fill="#171E27"/>
<path d="M31.875 6.875C31.3227 6.875 30.875 7.32271 30.875 7.875C30.875 8.42728 31.3227 8.875 31.875 8.875V6.875ZM39 8.875C39.5523 8.875 40 8.42728 40 7.875C40 7.32271 39.5523 6.875 39 6.875V8.875ZM31.875 15.625C31.3227 15.625 30.875 16.0727 30.875 16.625C30.875 17.1773 31.3227 17.625 31.875 17.625V15.625ZM39 17.625C39.5523 17.625 40 17.1773 40 16.625C40 16.0727 39.5523 15.625 39 15.625V17.625ZM31.875 24.375C31.3227 24.375 30.875 24.8227 30.875 25.375C30.875 25.9273 31.3227 26.375 31.875 26.375V24.375ZM39 26.375C39.5523 26.375 40 25.9273 40 25.375C40 24.8227 39.5523 24.375 39 24.375V26.375ZM31.875 33.125C31.3227 33.125 30.875 33.5727 30.875 34.125C30.875 34.6773 31.3227 35.125 31.875 35.125V33.125ZM39 35.125C39.5523 35.125 40 34.6773 40 34.125C40 33.5727 39.5523 33.125 39 33.125V35.125ZM8.125 35.125C8.67728 35.125 9.125 34.6773 9.125 34.125C9.125 33.5727 8.67728 33.125 8.125 33.125V35.125ZM1 33.125C0.447715 33.125 0 33.5727 0 34.125C0 34.6773 0.447715 35.125 1 35.125V33.125ZM8.125 26.375C8.67728 26.375 9.125 25.9273 9.125 25.375C9.125 24.8227 8.67728 24.375 8.125 24.375V26.375ZM1 24.375C0.447715 24.375 0 24.8227 0 25.375C0 25.9273 0.447715 26.375 1 26.375V24.375ZM8.125 17.625C8.67728 17.625 9.125 17.1773 9.125 16.625C9.125 16.0727 8.67728 15.625 8.125 15.625V17.625ZM1 15.625C0.447715 15.625 5.96046e-08 16.0727 0 16.625C-1.19209e-07 17.1773 0.447715 17.625 1 17.625L1 15.625ZM8.125 8.875C8.67728 8.875 9.125 8.42728 9.125 7.875C9.125 7.32271 8.67728 6.875 8.125 6.875V8.875ZM1 6.875C0.447715 6.875 0 7.32271 0 7.875C0 8.42728 0.447715 8.875 1 8.875V6.875ZM29.875 40H10.125V42H29.875V40ZM30.875 39C30.875 39.5523 30.4273 40 29.875 40V42C31.5319 42 32.875 40.6569 32.875 39H30.875ZM30.875 34.125V39H32.875V34.125H30.875ZM30.875 25.375V34.125H32.875V25.375H30.875ZM30.875 16.625V25.375H32.875V16.625H30.875ZM30.875 7.875V16.625H32.875V7.875H30.875ZM30.875 3V7.875H32.875V3H30.875ZM29.875 2C30.4273 2 30.875 2.44772 30.875 3H32.875C32.875 1.34315 31.5319 0 29.875 0V2ZM10.125 2H29.875V0H10.125V2ZM9.125 3C9.125 2.44772 9.57271 2 10.125 2V0C8.46815 0 7.125 1.34315 7.125 3H9.125ZM9.125 7.875V3H7.125V7.875H9.125ZM9.125 16.625V7.875H7.125V16.625H9.125ZM9.125 25.375V16.625H7.125V25.375H9.125ZM9.125 34.125V25.375H7.125V34.125H9.125ZM9.125 39V34.125H7.125V39H9.125ZM10.125 40C9.57272 40 9.125 39.5523 9.125 39H7.125C7.125 40.6569 8.46815 42 10.125 42V40ZM17 8C17 9.10457 16.1046 10 15 10V12C17.2091 12 19 10.2091 19 8H17ZM15 6C16.1046 6 17 6.89543 17 8H19C19 5.79086 17.2091 4 15 4V6ZM13 8C13 6.89543 13.8954 6 15 6V4C12.7909 4 11 5.79086 11 8H13ZM15 10C13.8954 10 13 9.10457 13 8H11C11 10.2091 12.7909 12 15 12V10ZM31.875 8.875H39V6.875H31.875V8.875ZM31.875 17.625H39V15.625H31.875V17.625ZM31.875 26.375H39V24.375H31.875V26.375ZM31.875 35.125H39V33.125H31.875V35.125ZM8.125 33.125H1V35.125H8.125V33.125ZM8.125 24.375H1V26.375H8.125V24.375ZM8.125 15.625L1 15.625L1 17.625L8.125 17.625V15.625ZM8.125 6.875H1V8.875H8.125V6.875Z" fill="#171E27"/>
</svg>
