<svg width="60" height="60" viewBox="0 0 60 60" fill="none" xmlns="http://www.w3.org/2000/svg">
<path d="M27.0267 3.33325H3.94141V4.32392C5.99874 5.54259 6.91341 6.99059 6.91341 12.7813V47.2186C6.91341 53.0093 5.99874 54.4572 3.94141 55.6759V56.6666H25.5801C26.1481 56.6666 26.7067 56.6559 27.2601 56.6359C27.4654 54.4479 27.6974 51.2773 27.8481 48.1093L27.9294 45.8893C27.9174 45.7653 27.8587 45.6759 27.7187 45.8226C25.8441 47.7959 25.7467 47.4906 24.9707 47.2639C24.1027 47.0093 21.4827 46.0559 21.0934 45.7853C20.7454 45.5439 20.8454 45.4159 21.2427 45.2519C23.2201 44.4173 27.4161 42.5479 28.0027 42.3013C28.0227 42.293 28.0399 42.2792 28.0522 42.2615C28.0645 42.2437 28.0714 42.2228 28.0721 42.2013L28.1214 40.9426C28.1221 40.9239 28.1181 40.9053 28.11 40.8884C28.1018 40.8716 28.0896 40.857 28.0744 40.8459C28.0593 40.8349 28.0417 40.8277 28.0232 40.825C28.0046 40.8223 27.9857 40.8243 27.9681 40.8306C26.9454 41.2133 21.7267 43.3639 20.9601 43.6506C20.1174 43.9626 19.6387 43.9172 18.9694 43.4586C18.4547 43.1026 16.7627 41.1119 16.4827 40.6372C16.3774 40.4599 16.2641 40.2879 16.5987 40.2159C16.9334 40.1439 27.0681 38.0826 28.1507 37.8853C28.1759 37.8805 28.1986 37.8673 28.2153 37.8479C28.232 37.8286 28.2417 37.8041 28.2427 37.7786L28.2921 36.5439C28.2927 36.527 28.2896 36.5101 28.2829 36.4945C28.2761 36.4789 28.266 36.4651 28.2532 36.454C28.2404 36.4428 28.2253 36.4347 28.2089 36.4302C28.1926 36.4257 28.1754 36.4249 28.1587 36.4279C26.9987 36.6079 19.1147 37.9999 18.2374 38.1439C17.2921 38.2972 17.0854 37.9372 16.7601 37.5239C16.4347 37.1106 15.3374 34.7239 15.2147 34.4959C14.9907 34.0839 14.9721 33.9026 15.3667 33.8773C18.6694 33.6653 27.2627 33.1573 28.3281 33.0919C28.3562 33.09 28.3826 33.0778 28.4023 33.0576C28.4219 33.0374 28.4335 33.0107 28.4347 32.9826L28.4774 31.8293C28.478 31.8136 28.4753 31.7981 28.4696 31.7835C28.4639 31.769 28.4553 31.7557 28.4443 31.7446C28.4334 31.7335 28.4202 31.7247 28.4057 31.7189C28.3912 31.713 28.3757 31.7102 28.3601 31.7106C27.2534 31.7479 18.3774 32.0186 17.7867 31.9986C17.1961 31.9786 16.9281 31.9133 16.6014 31.2253C16.3081 30.6079 15.9347 27.9613 15.9014 27.6693C15.8761 27.4479 15.8507 27.2693 16.2307 27.3439C19.2481 27.9013 27.3734 28.8026 28.4667 28.9439C28.4823 28.9458 28.498 28.9444 28.513 28.9399C28.5279 28.9353 28.5418 28.9278 28.5537 28.9176C28.5656 28.9075 28.5753 28.895 28.5821 28.8809C28.5889 28.8669 28.5928 28.8515 28.5934 28.8359L28.6347 27.7693C28.6361 27.7413 28.627 27.7138 28.6092 27.6922C28.5915 27.6705 28.5664 27.6562 28.5387 27.6519C27.6054 27.5066 20.1774 26.3906 19.3547 26.2399C18.4707 26.0786 18.3134 25.9119 18.1081 25.2679C17.9654 24.8252 17.8147 22.6493 17.8107 22.4173C17.8067 22.1853 17.7881 22.0319 18.1174 22.1279C23.1347 23.5946 27.7654 24.7653 28.6054 24.9759C28.6218 24.9804 28.639 24.981 28.6557 24.9779C28.6723 24.9747 28.6881 24.9678 28.7017 24.9576C28.7153 24.9475 28.7264 24.9344 28.7342 24.9193C28.742 24.9042 28.7463 24.8876 28.7467 24.8706L28.7867 23.8439C28.7879 23.8181 28.7802 23.7926 28.7649 23.7718C28.7497 23.7509 28.7277 23.7359 28.7027 23.7293C27.9027 23.5146 21.8481 21.8893 21.3427 21.7199C20.7681 21.5279 20.2827 21.2599 20.1734 20.5906C20.0641 19.9212 20.0507 18.4653 20.0707 18.1426C20.0907 17.8199 20.1321 17.7293 20.4027 17.8626C22.6801 18.9879 27.8067 20.9066 28.7387 21.2519C28.7555 21.2583 28.7736 21.2605 28.7914 21.2585C28.8092 21.2566 28.8263 21.2504 28.8413 21.2405C28.8563 21.2306 28.8687 21.2173 28.8775 21.2016C28.8863 21.186 28.8913 21.1685 28.8921 21.1506L28.9307 20.1572C28.9312 20.134 28.9248 20.1112 28.9122 20.0917C28.8996 20.0722 28.8814 20.057 28.8601 20.0479C28.2401 19.7946 23.8894 18.0146 23.1694 17.7026C22.4707 17.3986 22.3374 17.1533 22.2681 16.5146C22.2212 15.8873 22.2328 15.257 22.3027 14.6319C22.3561 14.2693 22.3294 14.1799 22.8814 14.5079C23.9867 15.1653 28.0121 17.2613 28.8627 17.7079C28.8798 17.717 28.8989 17.7216 28.9183 17.7212C28.9376 17.7209 28.9565 17.7156 28.9733 17.7058C28.99 17.696 29.0039 17.6822 29.0137 17.6655C29.0236 17.6488 29.029 17.6299 29.0294 17.6106L29.0667 16.6333C29.0675 16.612 29.0623 16.591 29.0516 16.5727C29.041 16.5543 29.0255 16.5392 29.0067 16.5293C28.5734 16.2959 25.9987 14.9173 25.3961 14.5879C24.6121 14.1586 24.3907 13.8266 24.3734 13.4586C24.3527 12.8672 24.3785 12.2752 24.4507 11.6879C24.5214 11.1799 24.6347 11.1119 24.9694 11.3786C26.4187 12.5359 28.4054 13.8373 28.9894 14.2159C29.0063 14.2268 29.0258 14.233 29.0458 14.2339C29.0659 14.2347 29.0858 14.2303 29.1036 14.2209C29.1214 14.2116 29.1363 14.1976 29.147 14.1806C29.1576 14.1636 29.1635 14.144 29.1641 14.1239L29.1987 13.2493C29.1992 13.2315 29.1955 13.2138 29.1881 13.1977C29.1808 13.1815 29.1698 13.1672 29.1561 13.1559C28.8174 12.8893 26.6667 11.3253 26.6667 11.3253C26.6667 11.3253 26.3881 11.0666 26.3907 10.7999C26.4163 10.2572 26.4922 9.71797 26.6174 9.18925C26.6947 8.97325 26.7414 8.85592 26.9761 9.09058C27.6561 9.77836 28.3722 10.4295 29.1214 11.0413C29.2414 11.1399 29.2867 11.1586 29.2867 11.0586C29.2867 10.0559 28.8307 8.07192 29.8201 7.52525C29.8361 7.5168 29.8539 7.51224 29.8721 7.51192C29.8906 7.51222 29.9089 7.51679 29.9254 7.52525C30.9147 8.07192 30.4587 10.0586 30.4587 11.0586C30.4587 11.1586 30.5041 11.1399 30.6241 11.0413C31.3732 10.4295 32.0894 9.77836 32.7694 9.09058C33.0027 8.85592 33.0507 8.97325 33.1267 9.18925C33.2532 9.71778 33.3295 10.2571 33.3547 10.7999C33.3547 11.0666 33.0747 11.3239 33.0747 11.3239C33.0747 11.3239 30.9321 12.8773 30.5867 13.1479C30.573 13.1592 30.5621 13.1735 30.5547 13.1897C30.5473 13.2058 30.5436 13.2235 30.5441 13.2413L30.5774 14.1159C30.5782 14.136 30.5844 14.1556 30.5952 14.1725C30.6059 14.1895 30.621 14.2034 30.6388 14.2127C30.6567 14.222 30.6767 14.2265 30.6968 14.2257C30.7169 14.2248 30.7364 14.2187 30.7534 14.2079C31.3361 13.8293 33.3227 12.5279 34.7734 11.3706C35.1081 11.1039 35.2214 11.1719 35.2921 11.6799C35.3635 12.2673 35.3898 12.8592 35.3707 13.4506C35.3534 13.8186 35.1307 14.1506 34.3467 14.5799C33.7441 14.9093 31.1694 16.2879 30.7347 16.5213C30.716 16.5312 30.7004 16.5463 30.6898 16.5647C30.6792 16.583 30.674 16.604 30.6747 16.6253L30.7134 17.6026C30.714 17.6217 30.7194 17.6404 30.7291 17.6569C30.7389 17.6734 30.7527 17.6872 30.7692 17.6969C30.7857 17.7066 30.8044 17.712 30.8236 17.7125C30.8427 17.7131 30.8617 17.7087 30.8787 17.6999C31.7307 17.2573 35.7547 15.1666 36.8614 14.4999C37.4134 14.1719 37.3867 14.2613 37.4401 14.6239C37.5103 15.249 37.5214 15.8794 37.4734 16.5066C37.4054 17.1453 37.2707 17.3906 36.5721 17.6946C35.8734 17.9986 31.5054 19.7866 30.8827 20.0399C30.8614 20.049 30.8432 20.0642 30.8306 20.0837C30.818 20.1032 30.8116 20.126 30.8121 20.1493L30.8507 21.1426C30.8512 21.1606 30.856 21.1783 30.8647 21.1941C30.8735 21.2099 30.8859 21.2233 30.901 21.2333C30.916 21.2432 30.9333 21.2494 30.9512 21.2512C30.9692 21.2531 30.9873 21.2506 31.0041 21.2439C31.9374 20.8986 37.0614 18.9773 39.3401 17.8546C39.6067 17.7213 39.6507 17.8079 39.6721 18.1346C39.6934 18.4613 39.6787 19.9066 39.5681 20.5826C39.4574 21.2586 38.9761 21.5159 38.4001 21.7119C37.8947 21.8813 31.8401 23.5066 31.0387 23.7213C31.014 23.7283 30.9923 23.7435 30.9771 23.7642C30.9619 23.785 30.954 23.8102 30.9547 23.8359L30.9947 24.8626C30.9954 24.8795 30.9998 24.896 31.0077 24.9109C31.0156 24.9259 31.0267 24.9389 31.0403 24.949C31.0538 24.9591 31.0694 24.966 31.086 24.9693C31.1026 24.9726 31.1197 24.9721 31.1361 24.9679C31.9774 24.7572 36.6027 23.5879 41.6254 22.1199C41.9547 22.0239 41.9347 22.1666 41.9307 22.4093C41.9267 22.6519 41.7761 24.8173 41.6347 25.2599C41.4294 25.9039 41.2707 26.0706 40.3881 26.2319C39.5667 26.3826 32.1334 27.4986 31.2041 27.6439C31.1764 27.6482 31.1513 27.6625 31.1336 27.6842C31.1158 27.7058 31.1068 27.7333 31.1081 27.7613L31.1494 28.8279C31.1499 28.8442 31.1539 28.8602 31.1612 28.8748C31.1684 28.8893 31.1787 28.9022 31.1913 28.9124C31.204 28.9227 31.2187 28.9301 31.2345 28.9341C31.2503 28.9382 31.2667 28.9388 31.2827 28.9359C32.3761 28.8026 40.5001 27.8986 43.5187 27.3359C43.8987 27.2653 43.8734 27.4399 43.8481 27.6613C43.8134 27.9533 43.4414 30.5946 43.1467 31.2173C42.8201 31.9053 42.5627 31.9706 41.9614 31.9906C41.3601 32.0106 32.4947 31.7399 31.3894 31.7026C31.3738 31.7022 31.3582 31.705 31.3438 31.7109C31.3293 31.7167 31.3161 31.7255 31.3051 31.7366C31.2941 31.7477 31.2855 31.761 31.2799 31.7755C31.2742 31.7901 31.2715 31.8056 31.2721 31.8213L31.3147 32.9746C31.316 33.0027 31.3275 33.0294 31.3472 33.0496C31.3669 33.0698 31.3933 33.082 31.4214 33.0839C32.4881 33.1493 41.0801 33.6573 44.3827 33.8693C44.7827 33.8946 44.7574 34.0759 44.5347 34.4879C44.4121 34.7146 43.3161 37.1039 42.9894 37.5159C42.6627 37.9279 42.4561 38.2892 41.5121 38.1359C40.6347 37.9919 32.7507 36.5999 31.5907 36.4199C31.574 36.4169 31.5569 36.4177 31.5405 36.4222C31.5242 36.4267 31.5091 36.4348 31.4963 36.446C31.4835 36.4571 31.4733 36.4709 31.4666 36.4865C31.4599 36.5021 31.4567 36.519 31.4574 36.5359L31.5067 37.7706C31.5078 37.7961 31.5175 37.8206 31.5342 37.8399C31.5509 37.8593 31.5736 37.8725 31.5987 37.8772C32.6814 38.0799 42.8321 40.1439 43.1494 40.2079C43.4667 40.2719 43.3721 40.4519 43.2667 40.6292C42.9867 41.1039 41.2947 43.0946 40.7801 43.4506C40.1134 43.9146 39.6321 43.9546 38.7881 43.6426C38.0227 43.3586 32.8041 41.2053 31.7814 40.8226C31.7638 40.8163 31.7449 40.8143 31.7263 40.817C31.7078 40.8197 31.6902 40.8269 31.675 40.8379C31.6599 40.849 31.6477 40.8636 31.6395 40.8804C31.6313 40.8973 31.6274 40.9159 31.6281 40.9346L31.6774 42.1933C31.6781 42.2148 31.685 42.2357 31.6973 42.2535C31.7096 42.2712 31.7268 42.285 31.7467 42.2933C32.3334 42.5399 36.5294 44.4092 38.5067 45.2439C38.9067 45.4106 39.0027 45.5386 38.6561 45.7772C38.2654 46.0439 35.6467 47.0013 34.7787 47.2559C34.0027 47.4826 33.9054 47.7892 32.0307 45.8146C31.8907 45.6679 31.8321 45.7572 31.8201 45.8812L31.9014 48.1013C32.0347 51.0426 32.2507 53.9852 32.4441 56.1439C47.8961 53.7106 56.0601 42.8786 56.0601 28.6972C56.0561 14.1519 46.1507 3.33325 27.0267 3.33325Z" fill="#171E27"/>
</svg>
