<svg width="97" height="97" viewBox="0 0 97 97" fill="none" xmlns="http://www.w3.org/2000/svg">
<path d="M92.7099 44.408L52.5909 4.29099C50.2809 1.97999 46.5339 1.97999 44.2219 4.29099L35.8919 12.623L46.4589 23.19C48.9149 22.36 51.7309 22.917 53.6879 24.875C55.6569 26.845 56.2089 29.685 55.3579 32.15L65.5439 42.335C68.0089 41.485 70.8509 42.035 72.8189 44.006C75.5689 46.756 75.5689 51.212 72.8189 53.964C70.0669 56.715 65.6109 56.715 62.8579 53.964C60.7899 51.894 60.2779 48.854 61.3269 46.306L51.8269 36.807V61.804C52.4969 62.136 53.1299 62.578 53.6879 63.136C56.4379 65.886 56.4379 70.342 53.6879 73.095C50.9379 75.844 46.4789 75.844 43.7309 73.095C40.9809 70.341 40.9809 65.885 43.7309 63.136C44.4109 62.457 45.1979 61.943 46.0379 61.599V36.369C45.1979 36.025 44.4129 35.516 43.7309 34.832C41.6479 32.75 41.1469 29.692 42.2149 27.134L31.7979 16.715L4.28794 44.222C1.97694 46.535 1.97694 50.282 4.28794 52.593L44.4089 92.711C46.7189 95.022 50.4649 95.022 52.7779 92.711L92.7099 52.779C95.0209 50.468 95.0209 46.719 92.7099 44.408Z" fill="#171E27"/>
</svg>
