<svg width="48" height="48" viewBox="0 0 48 48" fill="none" xmlns="http://www.w3.org/2000/svg">
<path d="M44.7803 12.5399C42.6341 8.86279 39.723 5.95159 36.0462 3.80567C32.3689 1.65965 28.3543 0.586914 23.9996 0.586914C19.6455 0.586914 15.6296 1.65998 11.953 3.80567C8.27587 5.95148 5.36489 8.86279 3.21876 12.5399C1.07296 16.217 0 20.2323 0 24.5859C0 29.8155 1.52576 34.5181 4.57804 38.6949C7.63 42.872 11.5727 45.7624 16.4057 47.3664C16.9683 47.4708 17.3848 47.3974 17.6556 47.1479C17.9265 46.8982 18.0617 46.5854 18.0617 46.2108C18.0617 46.1483 18.0564 45.5861 18.046 44.5234C18.0353 43.4607 18.0302 42.5337 18.0302 41.7427L17.3115 41.867C16.8532 41.951 16.2751 41.9865 15.5771 41.9765C14.8794 41.9667 14.1552 41.8936 13.4053 41.7577C12.6552 41.6229 11.9574 41.3104 11.3115 40.8209C10.666 40.3313 10.2077 39.6904 9.9368 38.8993L9.62432 38.1802C9.41603 37.7015 9.08812 37.1697 8.64013 36.5867C8.19214 36.0032 7.73912 35.6077 7.28085 35.3994L7.06205 35.2428C6.91626 35.1387 6.78098 35.0131 6.65588 34.8674C6.53088 34.7218 6.4373 34.576 6.3748 34.43C6.3122 34.2839 6.36408 34.164 6.53099 34.07C6.69791 33.976 6.99955 33.9303 7.43725 33.9303L8.062 34.0237C8.47869 34.1072 8.9941 34.3566 9.60889 34.7735C10.2233 35.1901 10.7285 35.7317 11.1244 36.398C11.6038 37.2524 12.1813 37.9034 12.8587 38.3514C13.5356 38.7994 14.218 39.023 14.9054 39.023C15.5927 39.023 16.1864 38.9709 16.6866 38.8673C17.1862 38.7631 17.655 38.6064 18.0927 38.3983C18.2802 37.0019 18.7907 35.9291 19.6237 35.1793C18.4364 35.0545 17.3689 34.8666 16.4207 34.6167C15.4731 34.3665 14.4938 33.9604 13.4836 33.3974C12.4728 32.8351 11.6343 32.137 10.9678 31.304C10.3013 30.4707 9.75424 29.3766 9.32749 28.0228C8.90051 26.6684 8.68697 25.1061 8.68697 23.3354C8.68697 20.8142 9.51005 18.6687 11.1559 16.8978C10.3849 15.0023 10.4577 12.8774 11.3745 10.5233C11.9786 10.3356 12.8746 10.4764 14.0619 10.945C15.2495 11.4138 16.119 11.8154 16.6713 12.1483C17.2236 12.4812 17.6661 12.7632 17.9995 12.992C19.9373 12.4505 21.9371 12.1797 23.9994 12.1797C26.0617 12.1797 28.0619 12.4505 29.9999 12.992L31.1873 12.2423C31.9993 11.7421 32.9582 11.2838 34.0617 10.8671C35.1659 10.4506 36.0102 10.3359 36.5938 10.5236C37.5309 12.8778 37.6144 15.0026 36.8432 16.8981C38.489 18.669 39.3124 20.815 39.3124 23.3357C39.3124 25.1064 39.0981 26.6737 38.6717 28.0384C38.2449 29.4034 37.6931 30.4964 37.0163 31.3197C36.3387 32.1429 35.4948 32.8356 34.4846 33.3977C33.4741 33.9603 32.4945 34.3664 31.5469 34.6166C30.5988 34.8668 29.5313 35.0548 28.344 35.1798C29.4269 36.117 29.9685 37.5962 29.9685 39.6169V46.2099C29.9685 46.5845 30.0987 46.8972 30.3594 47.1471C30.6198 47.3965 31.031 47.47 31.5936 47.3654C36.4273 45.7616 40.37 42.8711 43.4218 38.694C46.4734 34.5172 47.9997 29.8146 47.9997 24.585C47.9986 20.232 46.9251 16.217 44.7803 12.5399Z" fill="white"/>
</svg>
