<svg width="120" height="100" viewBox="0 0 120 100" fill="none" xmlns="http://www.w3.org/2000/svg">
<path d="M5 35.9L61 17L114.2 35.9L61 54.1L5 35.9Z" stroke="#171E27" stroke-width="2" stroke-linejoin="bevel"/>
<path d="M92.499 47.8V72.0328C88.999 77.0219 77.659 83.5 60.299 83.5" stroke="#171E27" stroke-width="2"/>
<path d="M61.4046 34.2848C60.8993 34.0619 60.309 34.2908 60.0861 34.7961C59.8631 35.3014 60.092 35.8917 60.5973 36.1146L61.4046 34.2848ZM84.801 45.6997H85.801V45.0479L85.2046 44.7848L84.801 45.6997ZM60.5973 36.1146L84.3973 46.6146L85.2046 44.7848L61.4046 34.2848L60.5973 36.1146ZM83.801 45.6997V63.1997H85.801V45.6997H83.801Z" fill="#171E27"/>
<path d="M27.4014 47.8V71.6C30.9014 76.5 42.9414 83.5 60.3014 83.5" stroke="#171E27" stroke-width="2"/>
</svg>
