<svg width="47" height="42" viewBox="0 0 47 42" fill="none" xmlns="http://www.w3.org/2000/svg">
<g clip-path="url(#clip0)">
<path d="M23.4987 25.2075C25.8123 25.2075 27.6878 23.3237 27.6878 21C27.6878 18.6762 25.8123 16.7925 23.4987 16.7925C21.1851 16.7925 19.3096 18.6762 19.3096 21C19.3096 23.3237 21.1851 25.2075 23.4987 25.2075Z" fill="white"/>
<path d="M23.4997 29.6206C35.9141 29.6206 45.978 25.7612 45.978 21.0004C45.978 16.2395 35.9141 12.3801 23.4997 12.3801C11.0853 12.3801 1.02148 16.2395 1.02148 21.0004C1.02148 25.7612 11.0853 29.6206 23.4997 29.6206Z" stroke="white" stroke-width="2"/>
<path d="M16.066 25.31C22.2732 36.1083 30.6329 42.9324 34.7379 40.552C38.8429 38.1716 37.1387 27.4881 30.9315 16.6898C24.7243 5.89146 16.3646 -0.9326 12.2596 1.44781C8.15463 3.82822 9.8588 14.5117 16.066 25.31Z" stroke="white" stroke-width="2"/>
<path d="M16.0663 16.6899C9.85905 27.4882 8.15488 38.1717 12.2599 40.5521C16.3649 42.9325 24.7246 36.1085 30.9318 25.3101C37.139 14.5118 38.8431 3.82835 34.7381 1.44794C30.6331 -0.932473 22.2735 5.89159 16.0663 16.6899Z" stroke="white" stroke-width="2"/>
</g>
<defs>
<clipPath id="clip0">
<rect width="47" height="42" fill="white"/>
</clipPath>
</defs>
</svg>
