<svg width="42" height="42" viewBox="0 0 42 42" fill="none" xmlns="http://www.w3.org/2000/svg">
<path d="M0 21V42H21H42V21V-1.017e-06H21H0V21ZM33.8467 19.3267C34.9133 19.5933 35.7267 20.0667 36.4733 20.84C36.86 21.2533 37.4333 22.0067 37.48 22.1867C37.4933 22.24 35.6667 23.4667 34.56 24.1533C34.52 24.18 34.36 24.0067 34.18 23.74C33.64 22.9533 33.0733 22.6133 32.2067 22.5533C30.9333 22.4667 30.1133 23.1333 30.12 24.2467C30.12 24.5733 30.1667 24.7667 30.3 25.0333C30.58 25.6133 31.1 25.96 32.7333 26.6667C35.74 27.96 37.0267 28.8133 37.8267 30.0267C38.72 31.38 38.92 33.54 38.3133 35.1467C37.6467 36.8933 35.9933 38.08 33.6667 38.4733C32.9467 38.6 31.24 38.58 30.4667 38.44C28.78 38.14 27.18 37.3067 26.1933 36.2133C25.8067 35.7867 25.0533 34.6733 25.1 34.5933C25.12 34.5667 25.2933 34.46 25.4867 34.3467C25.6733 34.24 26.38 33.8333 27.0467 33.4467L28.2533 32.7467L28.5067 33.12C28.86 33.66 29.6333 34.4 30.1 34.6467C31.44 35.3533 33.28 35.2533 34.1867 34.44C34.5733 34.0867 34.7333 33.72 34.7333 33.18C34.7333 32.6933 34.6733 32.48 34.42 32.1133C34.0933 31.6467 33.4267 31.2533 31.5333 30.4333C29.3667 29.5 28.4333 28.92 27.58 28C27.0867 27.4667 26.62 26.6133 26.4267 25.9C26.2667 25.3067 26.2267 23.82 26.3533 23.22C26.8 21.1267 28.38 19.6667 30.66 19.2333C31.4 19.0933 33.12 19.1467 33.8467 19.3267ZM23.9867 21.08L24 22.8H21.2667H18.5333V30.5667V38.3333H16.6H14.6667V30.5667V22.8H11.9333H9.2V21.1133C9.2 20.18 9.22 19.4 9.24667 19.38C9.26667 19.3533 12.5933 19.34 16.6267 19.3467L23.9667 19.3667L23.9867 21.08Z" fill="white"/>
</svg>
