<svg width="78" height="61" viewBox="0 0 78 61" fill="none" xmlns="http://www.w3.org/2000/svg">
<g clip-path="url(#clip0)">
<path fill-rule="evenodd" clip-rule="evenodd" d="M32.7916 4.29602L30.4451 -0.054718L28.2922 4.39604L17.3417 27.0351L-0.143379 61.3237L4.35947 63.6417L20.4332 32.1208L21.3831 32.8963L22.4609 33.7761L23.7783 33.3349L29.8643 31.2967L34.9128 33.2893L36.1132 33.7631L37.2 33.0654L41.1582 30.524L47.3535 42.2356L50.3066 36.9865L44.3394 25.7065L44.3347 25.6974L44.3297 25.6884L32.7916 4.29602ZM29.1351 26.1826L23.4958 28.0712L22.7574 27.4685L30.69 11.0687L38.76 26.0311L35.5623 28.0842L30.8601 26.2281L30.0058 25.891L29.1351 26.1826ZM62.7655 30.846L60.6489 26.5934L58.3052 30.7238L46.5858 51.3748L39.178 40.696L37.0226 37.5889L34.9776 40.7704L21.9073 61.1038L26.1574 63.8615L37.1827 46.71L44.7247 57.5819L47.0141 60.8823L48.9974 57.3875L60.3563 37.372L73.4182 63.6192L77.9439 61.3461L62.7655 30.846Z" fill="#171E27"/>
</g>
<defs>
<clipPath id="clip0">
<rect width="78" height="61" fill="white"/>
</clipPath>
</defs>
</svg>
