<svg width="100" height="100" viewBox="0 0 100 100" fill="none" xmlns="http://www.w3.org/2000/svg">
<circle cx="50" cy="50" r="50" fill="#171E27"/>
<g clip-path="url(#clip0)">
<path fill-rule="evenodd" clip-rule="evenodd" d="M43.7917 19.296L41.4451 14.9453L39.2922 19.396L28.3418 42.0351L10.8566 76.3237L15.3595 78.6417L31.4332 47.1208L32.3831 47.8963L33.4609 48.7761L34.7783 48.3349L40.8643 46.2967L45.9128 48.2893L47.1132 48.7631L48.2 48.0654L52.1582 45.524L58.3535 57.2356L61.3066 51.9865L55.3394 40.7065L55.3347 40.6974L55.3297 40.6884L43.7917 19.296ZM40.1351 41.1826L34.4958 43.0712L33.7574 42.4685L41.69 26.0687L49.76 41.0311L46.5623 43.0842L41.8601 41.2281L41.0058 40.891L40.1351 41.1826ZM73.7655 45.846L71.649 41.5934L69.3052 45.7238L57.5858 66.3748L50.178 55.696L48.0226 52.5889L45.9776 55.7704L32.9073 76.1038L37.1574 78.8615L48.1827 61.71L55.7247 72.5819L58.0141 75.8823L59.9974 72.3875L71.3564 52.372L84.4182 78.6192L88.9439 76.3461L73.7655 45.846Z" fill="white"/>
</g>
<defs>
<clipPath id="clip0">
<rect width="78" height="61" fill="white" transform="translate(11 15)"/>
</clipPath>
</defs>
</svg>
