<svg width="78" height="61" viewBox="0 0 78 61" fill="none" xmlns="http://www.w3.org/2000/svg">
<g clip-path="url(#clip0)">
<path fill-rule="evenodd" clip-rule="evenodd" d="M32.7924 4.29605L30.4459 -0.0546875L28.293 4.39607L17.3425 27.0351L-0.142578 61.3237L4.36027 63.6417L20.434 32.1209L21.3839 32.8963L22.4617 33.7761L23.7791 33.3349L29.8651 31.2967L34.9136 33.2894L36.114 33.7632L37.2008 33.0654L41.159 30.524L47.3543 42.2356L50.3074 36.9865L44.3402 25.7065L44.3355 25.6974L44.3305 25.6884L32.7924 4.29605ZM29.1359 26.1826L23.4966 28.0712L22.7582 27.4685L30.6908 11.0687L38.7608 26.0311L35.5631 28.0842L30.8609 26.2282L30.0066 25.891L29.1359 26.1826ZM62.7663 30.8461L60.6497 26.5935L58.306 30.7238L46.5866 51.3748L39.1788 40.6961L37.0234 37.589L34.9784 40.7705L21.9081 61.1039L26.1582 63.8616L37.1835 46.71L44.7255 57.582L47.0149 60.8823L48.9982 57.3875L60.3571 37.372L73.419 63.6193L77.9447 61.3462L62.7663 30.8461Z" fill="white"/>
</g>
<defs>
<clipPath id="clip0">
<rect width="78" height="61" fill="white"/>
</clipPath>
</defs>
</svg>
