<svg width="300" height="300" viewBox="0 0 300 300" fill="none" xmlns="http://www.w3.org/2000/svg">
<circle cx="150" cy="150" r="150" fill="white"/>
<g clip-path="url(#clip0)">
<path fill-rule="evenodd" clip-rule="evenodd" d="M131.375 57.8882L124.336 44.8359L117.877 58.1882L85.0257 126.105L32.5703 228.971L46.0789 235.925L94.3001 141.363L97.1497 143.689L100.383 146.328L104.335 145.005L122.593 138.89L137.739 144.868L141.34 146.29L144.6 144.196L156.475 136.572L175.061 171.707L183.92 155.96L166.019 122.12L166.005 122.092L165.989 122.065L131.375 57.8882ZM120.406 123.548L103.488 129.214L101.273 127.406L125.07 78.2062L149.28 123.093L139.687 129.253L125.581 123.685L123.018 122.673L120.406 123.548ZM221.297 137.538L214.947 124.78L207.916 137.171L172.758 199.124L150.535 167.088L144.068 157.767L137.933 167.311L98.7224 228.312L111.473 236.585L144.548 185.13L167.175 217.746L174.043 227.647L179.993 217.163L214.069 157.116L253.255 235.858L266.832 229.039L221.297 137.538Z" fill="#171E27"/>
</g>
<defs>
<clipPath id="clip0">
<rect width="234" height="183" fill="white" transform="translate(33 45)"/>
</clipPath>
</defs>
</svg>
